<?xml version="1.0" standalone="no"?>
<!DOCTYPE svg PUBLIC "-//W3C//DTD SVG 20010904//EN"
 "http://www.w3.org/TR/2001/REC-SVG-20010904/DTD/svg10.dtd">
<svg version="1.0" xmlns="http://www.w3.org/2000/svg"
 width="260.000000pt" height="260.000000pt" viewBox="0 0 260.000000 260.000000"
 preserveAspectRatio="xMidYMid meet">
<metadata>
Created by potrace 1.11, written by Peter Selinger 2001-2013
</metadata>
<g transform="translate(0.000000,260.000000) scale(0.100000,-0.100000)"
fill="#000000" stroke="none">
<path d="M237 2588 c4 -8 -13 -12 -32 -8 -5 1 -7 -2 -3 -6 12 -12 -25 -34 -39
-23 -7 7 -14 6 -19 -2 -4 -8 -3 -9 4 -5 7 4 12 5 12 1 0 -3 -12 -10 -26 -15
-15 -6 -22 -14 -18 -22 4 -6 3 -8 -4 -4 -11 6 -66 -38 -68 -55 -1 -5 -2 -14
-3 -20 0 -5 -5 -8 -10 -5 -5 3 -12 -1 -15 -10 -3 -8 -2 -13 2 -10 4 2 8 -4 8
-14 0 -13 -4 -16 -11 -10 -14 11 -14 -18 0 -39 5 -9 4 -12 -2 -8 -13 8 -12
-2052 1 -2072 6 -10 6 -12 -3 -6 -9 5 -11 -1 -8 -23 6 -36 16 -54 26 -48 4 3
7 -5 7 -17 -1 -17 4 -21 19 -19 16 3 18 1 8 -9 -10 -10 -9 -16 4 -31 9 -10 22
-18 30 -18 7 0 13 -6 13 -14 0 -9 9 -13 24 -12 16 2 23 -2 22 -13 0 -9 6 -16
14 -16 8 0 19 -6 23 -13 5 -7 13 -9 20 -5 16 10 47 11 52 2 3 -4 -6 -6 -20 -4
-14 1 -23 0 -19 -4 12 -13 99 -6 112 9 8 8 11 9 7 3 -3 -7 0 -13 7 -14 7 0 21
-2 31 -4 9 -2 15 0 12 5 -9 15 19 17 45 3 31 -16 54 -17 44 -1 -5 7 -3 8 7 3
22 -14 73 -11 87 5 8 8 11 9 7 3 -3 -7 0 -13 7 -14 7 0 21 -2 31 -4 9 -2 15 0
12 5 -9 15 19 17 45 3 31 -16 54 -17 44 -1 -5 7 -3 8 7 3 22 -14 73 -11 87 5
8 8 11 9 7 3 -3 -7 0 -13 7 -14 7 -1 25 -2 40 -3 19 -2 25 1 21 12 -5 12 -1
11 19 -2 21 -13 27 -14 31 -4 4 10 6 10 6 1 1 -7 6 -13 12 -13 5 0 7 5 3 12
-5 7 -3 8 7 3 22 -14 73 -11 87 5 8 8 11 9 7 3 -4 -8 1 -14 12 -14 63 -5 99
-3 105 6 5 6 8 5 8 -2 0 -7 5 -13 11 -13 5 0 7 5 3 12 -5 7 -3 8 7 3 22 -14
73 -11 87 5 8 8 11 9 7 3 -7 -14 -5 -14 68 -17 27 -1 47 2 47 8 0 8 3 7 8 0
11 -16 95 -12 110 6 8 8 11 9 7 3 -4 -9 2 -13 17 -14 13 -1 40 -2 61 -3 21 -1
40 1 43 6 3 4 11 8 17 8 8 0 8 -3 -1 -9 -9 -5 4 -8 35 -7 29 1 53 7 61 16 8 8
11 9 7 3 -4 -9 2 -13 17 -14 112 -6 116 -5 111 10 -4 14 -3 14 9 1 19 -22 238
-22 231 0 -4 13 -3 13 9 -1 17 -20 188 -22 188 -1 0 6 5 12 11 12 6 0 9 -7 6
-14 -4 -10 -1 -13 8 -9 8 3 12 9 9 14 -3 5 2 6 10 3 9 -3 16 -1 16 6 0 6 5 8
10 5 6 -3 10 -1 10 5 0 7 7 9 16 6 8 -3 13 -2 10 3 -3 5 2 15 11 22 14 12 16
12 8 0 -6 -10 -4 -12 4 -7 7 5 10 14 7 22 -3 8 0 11 8 8 8 -3 20 4 28 15 8 12
18 18 21 15 4 -4 5 3 2 14 -2 12 -1 21 3 21 20 -3 25 2 12 11 -12 8 -10 10 10
10 20 0 22 2 10 10 -14 9 -7 14 13 11 4 -1 3 7 -3 18 -12 23 -13 42 -1 23 4
-8 8 464 8 1050 0 769 -3 1065 -11 1070 -7 5 -7 8 3 8 11 0 11 3 1 15 -6 8 -9
19 -5 24 4 7 -1 8 -11 4 -12 -4 -15 -3 -10 5 4 7 2 12 -4 12 -6 0 -9 4 -5 10
3 5 -6 17 -20 26 -14 9 -25 22 -25 29 0 8 -9 17 -20 20 -11 4 -18 11 -15 16 3
5 -2 6 -11 2 -12 -5 -15 -3 -9 6 6 10 3 11 -13 2 -18 -9 -19 -8 -15 12 3 12 2
19 -2 14 -5 -4 -19 0 -32 8 -13 9 -23 13 -23 9 0 -4 -8 0 -17 7 -16 13 -17 12
-5 -3 12 -14 10 -16 -9 -11 -17 5 -20 3 -14 -8 7 -12 5 -12 -6 -1 -10 10 -11
15 -2 20 7 4 -38 8 -100 8 -104 0 -146 -10 -132 -30 3 -3 -1 -1 -7 4 -10 8
-10 13 -1 18 7 4 -38 8 -100 8 -104 0 -146 -10 -132 -30 3 -3 -1 -1 -7 4 -10
8 -10 13 -1 18 7 4 -38 8 -100 8 -104 0 -146 -10 -132 -30 3 -3 -1 -1 -7 4
-10 8 -10 13 -1 18 7 4 -38 8 -100 8 -108 0 -147 -10 -129 -32 4 -5 0 -3 -8 4
-11 10 -12 15 -3 20 7 4 -38 8 -100 8 -108 0 -147 -10 -129 -32 4 -5 0 -3 -8
4 -11 10 -12 15 -3 20 7 4 -38 8 -100 8 -108 0 -147 -10 -129 -32 4 -5 0 -3
-8 4 -11 10 -12 15 -3 20 7 4 -38 8 -100 8 -73 0 -116 -4 -124 -12 -7 -6 -11
-13 -10 -15 1 -3 -2 -1 -8 4 -6 5 -6 10 2 15 7 4 -38 8 -100 8 -62 0 -114 -3
-117 -7 -10 -13 -50 -21 -50 -9 0 6 4 9 8 6 4 -2 13 -1 20 3 6 4 -28 7 -77 6
-49 0 -87 -3 -84 -7z m57 -7 c-3 -4 -9 -5 -12 -5 -4 1 -18 -3 -31 -8 -19 -7
-22 -6 -13 5 6 7 22 13 36 13 14 0 23 -2 20 -5z m60 0 c-8 -9 -44 -11 -44 -3
0 4 11 8 25 8 13 0 22 -2 19 -5z m179 -1 c-7 -8 -103 -9 -103 -1 0 4 24 7 54
7 30 -1 52 -3 49 -6z m67 5 c0 -2 -6 -8 -13 -14 -10 -8 -14 -7 -14 2 0 8 6 14
14 14 7 0 13 -1 13 -2z m173 -5 c-7 -8 -103 -9 -103 -1 0 4 24 7 54 7 30 -1
52 -3 49 -6z m67 5 c0 -2 -6 -8 -13 -14 -10 -8 -14 -7 -14 2 0 8 6 14 14 14 7
0 13 -1 13 -2z m173 -5 c-7 -8 -103 -9 -103 -1 0 4 24 7 54 7 30 -1 52 -3 49
-6z m67 5 c0 -2 -6 -8 -13 -14 -10 -8 -14 -7 -14 2 0 8 6 14 14 14 7 0 13 -1
13 -2z m173 -5 c-7 -8 -103 -9 -103 -1 0 4 24 7 54 7 30 -1 52 -3 49 -6z m67
5 c0 -2 -6 -8 -13 -14 -10 -8 -14 -7 -14 2 0 8 6 14 14 14 7 0 13 -1 13 -2z
m173 -5 c-7 -8 -103 -9 -103 -1 0 4 24 7 54 7 30 -1 52 -3 49 -6z m67 5 c0 -2
-6 -8 -13 -14 -10 -8 -14 -7 -14 2 0 8 6 14 14 14 7 0 13 -1 13 -2z m173 -5
c-7 -8 -103 -9 -103 -1 0 4 24 7 54 7 30 -1 52 -3 49 -6z m67 5 c0 -2 -6 -8
-13 -14 -10 -8 -14 -7 -14 2 0 8 6 14 14 14 7 0 13 -1 13 -2z m173 -5 c-7 -8
-103 -9 -103 -1 0 4 24 7 54 7 30 -1 52 -3 49 -6z m67 5 c0 -2 -6 -8 -13 -14
-10 -8 -14 -7 -14 2 0 8 6 14 14 14 7 0 13 -1 13 -2z m173 -5 c-7 -8 -103 -9
-103 -1 0 4 24 7 54 7 30 -1 52 -3 49 -6z m67 5 c0 -2 -6 -8 -13 -14 -10 -8
-14 -7 -14 2 0 8 6 14 14 14 7 0 13 -1 13 -2z m105 -15 c3 -5 1 -10 -4 -10 -6
0 -11 5 -11 10 0 6 2 10 4 10 3 0 8 -4 11 -10z m-2315 -110 c0 -5 -5 -10 -11
-10 -5 0 -7 5 -4 10 3 6 8 10 11 10 2 0 4 -4 4 -10z m1398 -2445 c-3 -3 -9 2
-12 12 -6 14 -5 15 5 6 7 -7 10 -15 7 -18z m-323 6 c-9 -8 -36 -10 -30 -2 2 4
11 8 20 8 8 0 13 -3 10 -6z m259 0 c-7 -8 -54 -9 -49 -1 2 3 15 6 29 6 14 0
23 -2 20 -5z m240 0 c-7 -8 -54 -9 -49 -1 2 3 15 6 29 6 14 0 23 -2 20 -5z
m230 -2 c3 -3 -5 -5 -19 -5 -13 0 -22 3 -19 7 4 8 30 6 38 -2z m242 -1 c3 -4
-1 -5 -10 -4 -8 1 -18 5 -22 8 -3 4 1 5 10 4 8 -1 18 -5 22 -8z"/>
</g>
</svg>
